<?xml version="1.0" standalone="no"?>
<!DOCTYPE svg PUBLIC "-//W3C//DTD SVG 20010904//EN"
 "http://www.w3.org/TR/2001/REC-SVG-20010904/DTD/svg10.dtd">
<svg version="1.0" xmlns="http://www.w3.org/2000/svg"
 width="5747.000000pt" height="5747.000000pt" viewBox="0 0 5747.000000 5747.000000"
 preserveAspectRatio="xMidYMid meet">
<metadata>
Created by potrace 1.14, written by Peter Selinger 2001-2017
</metadata>
<g transform="translate(0.000000,5747.000000) scale(0.100000,-0.100000)"
fill="#000000" stroke="none">
<path d="M23959 55755 c-2 -2 -38 -6 -79 -10 -41 -3 -82 -8 -90 -10 -8 -2 -42
-6 -75 -10 -33 -3 -78 -10 -100 -15 -22 -5 -62 -12 -90 -16 -27 -3 -53 -8 -56
-10 -3 -2 -21 -6 -40 -9 -104 -18 -205 -49 -291 -89 -188 -89 -471 -196 -559
-211 -18 -3 -35 -8 -39 -10 -7 -5 -24 -8 -170 -36 -64 -13 -153 -21 -227 -22
-66 -1 -120 -4 -118 -7 4 -6 17 -295 19 -404 l1 -78 -185 -68 c-613 -224
-1130 -462 -1345 -620 -80 -59 -81 -62 -50 -117 73 -128 72 -125 70 -194 -1
-36 -8 -102 -14 -146 l-13 -79 -71 -35 c-40 -19 -110 -56 -157 -83 -47 -26
-134 -64 -195 -84 l-110 -35 -410 -3 c-225 -1 -466 -5 -535 -8 -69 -3 -186 -8
-260 -11 -174 -8 -222 -24 -361 -126 -53 -38 -82 -51 -140 -63 -40 -8 -74 -14
-76 -13 -4 5 -7 97 -2 100 14 11 153 89 202 113 49 24 54 30 40 39 -25 14
-516 18 -567 4 -21 -6 -46 -12 -55 -14 -35 -7 -213 -56 -238 -66 -68 -26 -437
-339 -522 -443 -27 -34 -64 -77 -83 -98 -18 -20 -47 -53 -65 -75 -56 -69 -116
-128 -213 -208 -52 -44 -100 -84 -106 -90 -6 -5 -32 -28 -59 -50 -26 -22 -53
-45 -59 -50 -6 -6 -67 -58 -136 -116 -69 -59 -135 -115 -147 -126 -13 -11
-107 -48 -209 -82 -160 -53 -197 -62 -253 -61 -36 1 -95 1 -131 1 l-66 -1 -62
-123 -62 -122 -108 -59 c-59 -33 -111 -59 -117 -58 -5 0 -68 16 -140 35 -71
20 -164 39 -205 42 -41 4 -88 9 -105 11 -16 2 -91 4 -165 4 -74 1 -153 5 -175
10 -22 5 -53 11 -70 14 -16 3 -79 15 -140 26 -103 19 -392 65 -480 75 -22 3
-64 9 -92 14 -29 4 -53 6 -53 4 0 -9 101 -152 133 -189 19 -21 55 -63 80 -91
62 -70 149 -201 139 -207 -7 -4 -134 -41 -154 -45 -5 0 -17 -1 -28 -1 -14 0
-18 -5 -13 -17 14 -38 65 -104 150 -191 73 -76 106 -101 194 -150 l107 -58
-18 -45 c-10 -24 -21 -53 -25 -64 -43 -116 -60 -169 -91 -285 -21 -74 -38
-136 -39 -138 -1 -1 -22 9 -46 22 -157 87 -336 62 -454 -64 -123 -130 -158
-160 -245 -203 -55 -27 -75 -32 -135 -31 -58 0 -77 5 -112 27 -23 14 -44 31
-48 37 -3 5 -35 10 -71 10 -61 0 -65 -1 -74 -27 -6 -16 -15 -36 -20 -45 -6
-10 -10 -23 -10 -29 0 -6 -24 -68 -53 -138 -35 -82 -82 -169 -136 -250 -45
-68 -101 -158 -123 -200 -22 -42 -44 -80 -48 -86 -7 -11 -111 -263 -115 -280
-1 -5 -5 -17 -8 -25 -38 -94 -117 -426 -131 -554 -3 -27 -7 -50 -8 -51 -12
-11 -239 -135 -246 -135 -5 0 -31 -26 -58 -57 -27 -32 -55 -64 -62 -72 -7 -7
-22 -34 -34 -60 -11 -25 -52 -111 -90 -190 l-68 -144 -83 79 c-45 44 -118 105
-162 136 -78 54 -265 154 -265 142 0 -4 15 -65 34 -138 l34 -131 6 -330 c3
-181 9 -367 12 -412 6 -76 5 -83 -12 -84 -11 0 -28 -3 -39 -5 -75 -17 -319
-11 -390 10 -5 2 -23 6 -40 11 -184 48 -343 231 -380 435 -3 19 -8 44 -10 55
-2 11 -4 44 -4 74 -1 76 -7 61 -15 -36 -4 -46 -9 -93 -12 -105 -2 -13 -7 -43
-11 -68 -3 -25 -16 -65 -28 -90 -34 -66 -29 -46 -116 -505 -12 -58 -37 -129
-84 -230 -13 -27 -42 -102 -65 -165 -22 -63 -45 -126 -51 -139 -5 -13 -9 -125
-8 -258 0 -129 -1 -236 -4 -239 -2 -2 -21 17 -41 43 -96 124 -193 232 -208
232 -9 1 -39 -4 -65 -10 l-50 -12 3 -76 c1 -42 6 -123 10 -181 10 -122 10
-183 1 -225 -3 -16 -11 -61 -18 -98 l-12 -68 -71 -33 c-39 -18 -116 -53 -171
-76 -242 -106 -427 -232 -620 -425 -138 -138 -190 -204 -389 -490 -58 -83
-612 -867 -644 -910 -32 -44 -299 -421 -353 -500 -20 -27 -65 -107 -102 -177
-37 -70 -103 -191 -147 -269 -44 -78 -80 -146 -80 -150 0 -4 -4 -9 -8 -11 -4
-1 -25 -32 -45 -68 -46 -80 -39 -69 -166 -265 -220 -342 -482 -649 -639 -752
l-62 -42 57 -34 c32 -20 76 -39 98 -43 22 -5 43 -9 48 -10 4 -1 13 -2 20 -3
12 -1 68 -51 115 -103 l22 -24 -59 -84 c-66 -92 -131 -144 -266 -212 -44 -22
-115 -68 -157 -102 l-77 -61 0 -78 c-1 -90 10 -119 89 -221 27 -36 50 -68 50
-70 0 -3 -21 -16 -47 -29 -53 -27 -171 -52 -200 -43 -10 3 -40 8 -68 11 -27 3
-61 8 -75 11 -14 3 -49 9 -78 14 -66 11 -69 13 -77 53 -4 17 -14 53 -22 79
l-15 47 -47 -35 c-52 -40 -50 -29 -20 -176 23 -111 29 -88 -67 -249 -35 -59
-64 -110 -64 -113 0 -3 -9 -25 -19 -49 -11 -23 -32 -74 -48 -114 -26 -67 -50
-99 -166 -227 -15 -17 -51 -76 -78 -130 -51 -99 -51 -100 -51 -196 0 -53 2
-109 5 -126 4 -16 9 -49 12 -74 3 -25 22 -94 42 -155 31 -98 41 -116 88 -165
43 -45 55 -67 69 -120 10 -36 19 -73 22 -82 4 -14 -5 -16 -68 -16 l-73 0 -60
85 c-48 67 -76 95 -135 135 -41 28 -102 72 -136 99 l-60 48 2 -82 c1 -45 2
-85 3 -89 1 -4 21 -21 46 -39 l46 -33 -7 -67 c-10 -113 -17 -132 -53 -156 -39
-26 -90 -38 -126 -29 -36 9 -87 65 -109 117 -39 93 -50 134 -61 219 -7 49 -9
52 -17 30 -41 -108 -49 -320 -16 -449 30 -118 122 -294 192 -367 6 -6 27 -28
46 -50 201 -222 563 -429 996 -570 l82 -26 -21 -47 c-23 -50 -96 -114 -228
-202 l-66 -43 -12 -74 -12 -73 67 -134 c37 -74 71 -135 75 -135 4 0 16 -15 28
-32 11 -18 29 -43 41 -56 67 -71 150 -200 150 -232 0 -4 -10 -18 -21 -31 -12
-13 -33 -39 -46 -56 -25 -32 -28 -33 -100 -33 -67 0 -79 3 -126 33 -29 18 -99
57 -157 86 -58 30 -130 69 -161 87 -31 19 -59 34 -63 34 -3 0 -6 -62 -6 -138
0 -162 -11 -208 -77 -332 -25 -47 -63 -134 -84 -195 -20 -60 -47 -136 -58
-167 -23 -63 -26 -125 -11 -209 5 -30 12 -79 15 -109 3 -30 8 -80 11 -110 17
-172 53 -323 91 -382 23 -36 28 -40 31 -23 15 71 89 25 148 -93 27 -53 31 -69
22 -86 -16 -30 -69 -76 -90 -77 -10 -1 -22 -3 -28 -4 -5 -1 -14 -3 -19 -4 -4
0 -20 -12 -34 -26 -47 -48 -44 -62 43 -207 43 -73 81 -146 84 -163 9 -47 -12
-103 -66 -185 l-51 -75 1 -250 c0 -137 3 -279 7 -315 3 -36 8 -96 10 -134 6
-85 6 -85 65 -211 26 -55 50 -110 54 -122 6 -17 18 -22 74 -28 134 -13 116 -5
231 -100 l73 -60 -6 -160 c-10 -297 -12 -309 -80 -513 -53 -156 -74 -205 -125
-286 -50 -80 -67 -118 -94 -214 -30 -111 -32 -127 -35 -320 l-3 -203 36 -103
35 -103 5 -347 c2 -190 6 -350 9 -354 2 -4 82 -7 178 -7 l173 1 145 -79 c80
-44 147 -81 149 -83 2 -2 4 -61 4 -132 l-1 -128 -63 -161 -64 -161 -103 -105
-102 -105 -1 -54 c0 -29 -2 -62 -4 -72 -2 -11 -6 -51 -10 -90 -20 -244 -25
-297 -30 -381 -3 -44 -8 -102 -11 -128 l-6 -48 32 16 c18 9 66 36 106 60 41
25 80 45 87 47 16 4 227 -84 227 -95 0 -4 -27 -48 -60 -97 -70 -104 -183 -328
-245 -487 -10 -24 -20 -43 -24 -43 -3 0 -17 -10 -31 -23 -14 -13 -52 -45 -85
-71 -73 -60 -318 -305 -400 -401 -33 -38 -62 -72 -65 -75 -3 -3 -28 -32 -55
-65 -28 -33 -52 -62 -55 -65 -3 -3 -25 -30 -49 -60 -25 -30 -49 -59 -55 -65
-6 -5 -17 -28 -25 -50 -35 -102 -48 -121 -93 -134 -88 -27 -84 -28 -169 59
-44 45 -79 77 -80 73 0 -4 -2 -17 -5 -28 -2 -11 -6 -42 -9 -70 -3 -27 -8 -68
-12 -90 -3 -22 -7 -83 -7 -136 l0 -96 51 -64 51 -64 95 1 c92 1 97 2 139 35
23 18 45 36 48 39 3 3 21 17 40 31 32 24 42 26 120 23 77 -2 115 -6 205 -20
17 -3 53 -12 80 -21 128 -40 185 -98 187 -186 2 -48 -33 -134 -53 -134 -30 0
-505 -125 -524 -138 -33 -20 -109 -96 -136 -135 -95 -134 -99 -311 -12 -477
48 -89 290 -352 497 -538 49 -44 103 -93 119 -108 17 -16 62 -56 101 -90 38
-34 81 -73 96 -87 14 -14 57 -52 94 -85 47 -41 89 -91 135 -162 185 -287 170
-252 147 -355 -10 -43 -14 -126 -14 -260 l0 -197 54 69 c29 38 84 100 121 138
38 37 86 94 108 125 l40 57 105 -1 c86 0 128 -6 229 -32 l124 -32 15 -65 c8
-36 22 -99 32 -139 18 -76 18 -110 4 -286 -10 -122 -11 -339 -1 -460 4 -49 9
-126 12 -170 12 -201 20 -264 51 -383 48 -189 144 -327 267 -386 65 -30 111
-40 188 -38 l57 1 12 -62 c7 -34 14 -99 15 -145 l1 -83 170 -135 c431 -344
773 -584 994 -699 88 -46 196 -85 220 -80 14 3 26 -13 49 -62 18 -36 30 -66
29 -67 -2 -1 -24 -13 -51 -27 -90 -46 -154 -119 -186 -211 -22 -64 -20 -86 18
-220 28 -100 34 -133 47 -248 12 -115 -2 -92 151 -245 64 -63 121 -111 155
-128 29 -15 98 -52 153 -82 126 -70 162 -87 255 -120 41 -14 92 -34 112 -42
35 -15 404 -375 490 -478 18 -22 38 -46 45 -53 7 -7 29 -33 50 -58 l37 -46
-16 -98 c-15 -84 -24 -108 -66 -177 -27 -43 -48 -86 -47 -94 13 -90 19 -136
21 -144 1 -5 2 -21 3 -35 1 -27 151 -262 191 -300 3 -3 20 -24 39 -48 18 -23
85 -80 149 -126 83 -59 168 -135 292 -260 96 -97 176 -178 178 -180 2 -2 -29
-10 -68 -17 -76 -13 -89 -21 -68 -43 13 -13 125 -136 223 -246 41 -46 61 -59
107 -74 67 -20 105 -49 158 -120 57 -76 81 -101 128 -130 84 -52 124 -57 525
-56 l368 0 -16 -27 c-53 -93 -73 -126 -82 -131 -6 -4 -45 -7 -86 -6 l-75 1 28
-66 c67 -162 75 -172 200 -296 67 -66 136 -136 152 -155 17 -19 49 -55 72 -80
23 -25 61 -69 85 -98 53 -63 245 -201 344 -247 40 -18 103 -47 140 -64 37 -17
152 -54 255 -82 l187 -52 280 -2 c282 -2 328 -6 405 -28 68 -19 73 -39 24 -87
-77 -75 -164 -243 -145 -278 12 -21 178 -182 246 -237 26 -22 53 -45 60 -52 6
-6 41 -35 76 -64 35 -29 66 -55 69 -58 3 -4 37 -33 75 -66 39 -33 75 -64 81
-70 5 -5 60 -81 120 -167 91 -131 125 -171 199 -234 139 -117 135 -113 315
-278 133 -122 158 -144 210 -186 30 -25 57 -47 60 -50 11 -12 265 -226 292
-246 20 -15 51 -24 106 -29 117 -12 124 -13 167 -19 39 -5 70 -8 227 -21 43
-4 86 -8 95 -10 10 -2 23 -4 29 -4 6 -1 -11 -43 -37 -94 -27 -50 -49 -95 -49
-98 0 -3 21 -21 47 -39 27 -19 49 -38 51 -42 2 -4 49 -22 105 -39 381 -115
434 -136 609 -240 135 -80 537 -361 558 -388 3 -4 88 -76 190 -161 102 -85
187 -158 190 -161 9 -10 182 -133 255 -180 227 -148 493 -278 621 -304 133
-27 219 -28 290 -5 40 13 94 46 106 64 28 45 61 66 147 94 l94 32 109 111 c96
97 122 118 206 161 l97 50 175 2 c141 2 191 7 255 24 95 25 123 30 201 37 53
4 161 17 174 20 3 0 23 4 44 9 l39 7 -164 99 -164 98 -47 96 c-27 53 -46 96
-45 96 2 0 43 -14 90 -30 58 -20 108 -30 150 -31 151 -3 328 -56 404 -123 16
-13 53 -44 83 -68 30 -24 55 -48 55 -54 1 -5 7 -33 14 -62 10 -41 21 -59 50
-80 20 -15 38 -29 41 -32 20 -21 80 -47 205 -90 80 -27 200 -75 268 -108 67
-33 181 -83 254 -111 135 -53 302 -143 304 -164 0 -7 2 -19 3 -27 3 -14 8 -57
22 -190 3 -30 9 -58 12 -62 6 -5 206 -48 302 -64 14 -2 45 -9 70 -14 25 -5 95
-19 155 -30 61 -10 120 -21 131 -24 12 -2 38 -7 58 -10 21 -3 70 -13 109 -21
40 -8 128 -24 196 -35 69 -12 127 -23 130 -24 3 -2 30 -7 60 -10 29 -4 56 -8
60 -10 3 -2 26 -7 51 -10 25 -3 56 -8 70 -11 156 -28 270 -47 295 -50 17 -2
73 -11 125 -20 83 -14 206 -33 320 -50 19 -3 60 -10 90 -15 30 -5 75 -12 100
-15 25 -3 70 -10 100 -15 30 -5 78 -12 105 -15 28 -3 59 -8 70 -10 11 -2 40
-7 65 -10 25 -3 54 -7 65 -9 11 -2 45 -7 76 -10 31 -4 65 -8 75 -10 11 -2 46
-7 79 -10 33 -4 67 -9 75 -11 8 -2 42 -6 75 -10 33 -3 71 -7 85 -10 14 -2 48
-7 75 -10 28 -3 61 -8 75 -10 14 -2 52 -7 85 -10 33 -3 74 -8 90 -10 30 -4
197 -23 270 -30 77 -8 150 -16 185 -20 19 -2 67 -7 105 -10 39 -3 84 -8 100
-10 17 -2 64 -6 105 -10 41 -3 95 -8 120 -10 25 -3 77 -7 115 -10 39 -3 95 -7
125 -10 30 -2 93 -7 140 -10 47 -3 108 -8 135 -10 28 -2 106 -7 175 -11 69 -4
150 -8 180 -10 439 -23 1021 -24 1448 -1 17 1 15 7 -7 26 -50 44 -197 321
-312 588 l-18 42 73 30 c218 91 424 121 573 83 114 -29 183 -77 219 -150 80
-169 113 -344 77 -411 -25 -47 -64 -74 -121 -81 l-47 -6 40 -9 c35 -7 48 -4
111 29 96 49 179 117 245 200 65 82 69 89 75 124 2 15 7 38 9 52 3 14 7 43 10
65 5 33 18 52 73 106 67 66 67 67 117 63 133 -9 268 -46 315 -86 70 -59 67
-133 -9 -233 -21 -27 -60 -91 -85 -142 -48 -94 -61 -107 -271 -287 -16 -14
-28 -27 -25 -27 3 -1 82 -2 175 -3 189 -2 172 -8 217 74 14 25 36 63 48 85 33
57 52 97 100 210 23 55 45 102 49 105 4 3 39 50 78 106 76 108 90 118 313 237
47 25 218 69 390 100 27 5 76 16 101 23 25 7 173 -147 281 -292 51 -68 98
-124 105 -124 7 0 27 7 45 14 68 30 314 115 348 120 19 3 46 8 60 11 28 6 120
23 165 30 46 8 296 54 330 60 17 3 47 9 68 12 20 3 37 10 37 15 0 15 -160 166
-261 248 -103 83 -229 204 -229 220 0 6 6 12 13 14 124 33 215 103 361 283 42
51 88 91 158 139 l98 67 108 -7 c304 -21 535 1 962 90 89 18 317 84 480 138
496 164 1143 478 1585 770 l130 86 146 0 146 0 58 133 c32 72 65 141 72 152 7
11 66 74 131 140 65 66 158 166 207 223 l88 103 228 114 c142 71 282 150 373
211 l145 96 -27 22 c-15 12 -42 32 -59 45 -18 12 -33 26 -33 31 0 4 49 43 109
85 104 74 110 80 126 130 20 64 34 85 60 89 30 5 91 -20 133 -53 152 -124 148
-122 194 -117 24 2 97 8 163 12 66 3 129 8 140 9 11 1 46 3 77 4 52 1 61 5
100 41 50 47 181 140 197 140 6 0 11 4 11 9 0 5 8 11 18 14 9 3 49 19 87 35
39 16 93 34 120 41 28 6 61 14 75 17 14 4 95 7 180 8 85 1 171 7 190 13 19 7
70 19 113 29 43 9 80 21 82 28 5 11 11 44 21 106 5 31 10 81 13 130 2 26 55
50 113 50 l53 0 55 87 c48 76 75 113 139 189 65 77 190 265 230 349 75 153 77
140 -34 231 -52 43 -95 82 -95 88 0 16 81 147 94 152 7 3 39 -5 71 -17 67 -25
120 -75 160 -151 20 -38 55 -76 124 -134 l96 -81 83 0 82 0 48 96 c35 72 81
139 183 266 75 94 154 186 176 205 22 19 84 76 139 126 172 159 203 186 247
214 43 28 147 132 252 253 l59 68 60 -6 c118 -11 295 -38 376 -56 25 -6 56
-13 70 -15 317 -57 786 -243 1130 -448 l95 -56 39 43 c22 23 84 90 139 149 54
59 106 116 115 126 10 11 63 69 119 129 56 60 119 128 139 151 20 23 39 42 43
42 3 0 16 -21 28 -48 42 -91 136 -210 234 -297 111 -98 317 -195 469 -220 25
-4 54 -9 65 -11 11 -3 63 -7 114 -11 l95 -6 208 -136 c115 -75 286 -187 381
-248 94 -62 177 -116 182 -121 6 -4 124 -81 263 -171 140 -90 259 -174 267
-185 7 -12 54 -93 105 -181 363 -628 784 -1132 1170 -1401 98 -68 287 -159
375 -180 6 -1 42 -10 80 -19 365 -86 889 -283 1255 -473 443 -230 626 -352
837 -559 194 -191 376 -418 603 -754 30 -44 60 -86 65 -92 6 -7 30 -41 54 -77
25 -36 85 -119 134 -185 397 -530 734 -799 1127 -899 230 -59 487 -55 718 10
246 69 485 197 697 374 390 324 667 771 764 1230 31 146 32 155 36 310 11 422
-122 751 -424 1050 -85 85 -305 260 -326 260 -2 0 -35 18 -71 41 -179 109
-478 232 -929 383 -223 75 -286 101 -445 183 -307 159 -576 306 -632 344 -14
11 -29 19 -32 19 -25 0 -446 274 -604 393 -152 115 -165 129 -201 216 -159
385 -536 855 -951 1187 -401 320 -890 574 -1440 746 -52 16 -102 31 -110 33
-8 2 -42 11 -75 20 -33 9 -103 27 -155 40 -84 21 -110 27 -168 39 -8 1 -93 70
-189 152 -203 172 -606 516 -643 548 -14 12 -101 86 -195 166 -93 79 -207 175
-252 214 l-81 70 5 63 c12 132 -35 261 -127 351 -94 92 -271 162 -450 178 -41
3 -76 7 -77 8 -1 1 88 181 197 400 l199 399 -57 30 c-60 31 -213 133 -247 164
-11 10 -38 32 -60 50 -90 71 -313 313 -381 413 -13 19 -36 53 -52 75 -102 145
-303 529 -328 629 -7 28 13 65 87 159 38 47 119 176 171 272 58 106 229 456
288 590 34 77 73 164 86 193 13 29 24 55 24 57 0 3 9 24 19 48 68 146 134 337
627 1807 250 743 464 1320 698 1885 95 226 101 241 140 327 14 31 26 59 26 61
0 2 14 35 32 73 17 38 32 71 33 74 3 10 24 58 65 145 23 50 55 119 72 155 46
99 220 448 284 568 178 333 443 750 539 846 9 9 14 16 10 16 -19 0 -139 -70
-193 -112 -55 -44 -65 -48 -80 -37 -9 7 -38 30 -63 51 l-46 38 -8 102 c-5 57
-9 113 -10 126 -1 12 -5 25 -9 29 -4 4 -46 8 -94 9 -48 0 -116 4 -152 9 -103
12 -105 12 -112 14 -16 3 -193 144 -190 152 1 5 58 87 125 182 388 541 615
905 605 968 -2 17 -11 22 -45 24 -55 4 -129 38 -166 76 -28 30 -71 112 -84
161 -3 13 -7 75 -9 138 -3 105 0 135 21 240 13 62 12 372 -1 471 -29 223 -102
358 -201 373 -37 5 -38 1 -22 -57 15 -54 18 -218 4 -224 -7 -2 -34 5 -61 15
-55 22 -52 10 -39 157 10 112 12 134 19 270 4 66 9 149 11 185 5 80 6 771 1
895 -4 84 -11 232 -21 400 -4 64 -11 169 -21 285 -1 25 -6 83 -9 130 -3 47 -8
99 -10 115 -2 17 -6 66 -10 110 -3 44 -8 94 -10 110 -3 29 -9 77 -19 175 -3
25 -8 70 -11 100 -5 49 -8 77 -20 160 -2 14 -6 50 -9 80 -4 30 -9 73 -11 95
-3 22 -8 55 -10 74 -13 96 -41 296 -60 416 -8 50 -17 108 -20 130 -8 58 -14
94 -25 150 -18 98 -19 126 -3 132 12 5 11 9 -6 27 -11 12 -22 42 -25 71 -3 28
-8 61 -11 75 -11 55 -14 77 -20 115 -8 58 -14 93 -25 150 -11 55 -17 93 -26
143 -3 18 -23 119 -45 225 -22 105 -42 203 -45 217 -3 14 -16 75 -30 135 -14
61 -27 121 -30 135 -3 14 -25 106 -50 205 -25 99 -46 187 -48 195 -8 32 -90
337 -103 385 -8 28 -18 64 -23 80 -4 17 -18 64 -29 105 -12 41 -23 82 -25 90
-3 8 -16 53 -31 100 -14 47 -42 137 -61 200 -115 375 -279 856 -414 1215 -46
121 -93 248 -106 282 -12 34 -29 77 -37 95 -8 18 -40 98 -72 178 -31 80 -63
159 -70 175 -7 17 -32 75 -55 130 -23 55 -47 114 -55 130 -77 174 -107 242
-133 311 -104 273 -357 810 -541 1149 -86 161 -111 205 -136 250 -15 28 -54
97 -87 155 -32 58 -62 112 -67 120 -6 8 -40 67 -77 130 -56 96 -374 617 -424
695 -8 13 -34 54 -58 92 -235 374 -854 1287 -1056 1558 -20 27 -90 122 -120
165 -97 135 -221 299 -256 340 -36 42 -53 63 -100 120 -25 30 -55 66 -67 80
-26 29 -27 32 -12 118 7 41 25 87 47 124 40 67 46 54 -58 125 -58 40 -60 42
-160 125 -37 31 -115 80 -180 112 -134 67 -134 66 -182 130 -34 44 -111 110
-264 226 -32 25 -61 47 -64 50 -3 3 -36 30 -75 60 -38 30 -77 60 -85 67 -8 7
-38 30 -66 52 -28 22 -64 59 -80 83 -86 127 -178 233 -385 438 -156 156 -277
268 -444 415 -37 33 -75 67 -84 76 -37 36 -571 480 -620 516 -6 4 26 84 71
180 21 46 38 89 38 96 0 21 57 103 96 137 47 41 121 208 167 378 25 89 56 172
97 255 33 67 60 125 60 129 0 4 -26 32 -57 63 -62 60 -74 63 -143 28 -23 -11
-75 -15 -214 -18 -101 -1 -188 -5 -193 -8 -5 -3 -40 -7 -77 -8 l-67 -2 5 -36
c3 -20 8 -54 11 -76 6 -37 81 -299 141 -495 37 -117 62 -247 57 -295 -7 -78
-48 -104 -112 -71 -15 8 -66 20 -114 27 l-86 12 -63 87 c-57 80 -71 92 -149
136 -64 36 -94 60 -122 98 -20 28 -35 57 -32 66 12 40 17 82 20 163 l3 89 -22
-35 c-38 -64 -110 -102 -210 -113 l-55 -5 -78 64 c-79 64 -356 265 -432 312
-9 6 -18 13 -21 16 -12 13 -710 472 -970 637 -91 57 -172 111 -181 119 -10 8
-20 35 -24 61 -4 25 -25 100 -47 167 -22 66 -41 129 -44 139 -2 10 -8 33 -13
50 -5 17 -12 47 -15 68 -6 35 -17 58 -97 205 l-40 73 573 -1 c581 -1 622 -3
903 -45 23 -3 57 -19 81 -37 22 -18 77 -61 122 -97 l82 -65 84 0 85 -1 36 85
35 84 -22 25 c-13 14 -45 47 -72 74 l-49 48 -2 123 c-2 99 -10 205 -21 250 -1
4 -2 10 -3 14 0 3 -22 -15 -48 -41 -45 -44 -48 -49 -48 -104 l-1 -57 -50 1
c-80 1 -114 9 -205 48 -94 41 -94 40 -188 51 -64 8 -66 9 -154 92 -99 95 -167
141 -265 183 -128 54 -303 70 -394 35 -12 -5 -18 2 -23 27 -23 108 -166 330
-308 476 -97 99 -218 291 -354 562 -62 124 -113 218 -114 210 -5 -97 -30 -189
-59 -215 -18 -16 -22 -16 -43 -2 -13 8 -46 19 -73 23 -87 12 -153 50 -249 143
-49 48 -97 87 -105 86 -8 -1 -21 -3 -27 -3 -27 -4 -13 -53 28 -97 l41 -45 -18
-27 c-43 -64 -55 -96 -49 -122 4 -14 9 -33 11 -41 2 -8 8 -33 14 -55 6 -22 13
-78 15 -125 3 -73 0 -92 -21 -137 l-24 -53 -700 0 c-500 0 -720 3 -770 12
l-70 12 0 74 c0 67 3 78 32 119 33 45 96 95 138 108 20 6 21 12 15 53 -11 82
-13 84 -53 78 -21 -2 -59 -10 -87 -16 -27 -7 -63 -13 -80 -16 -16 -2 -85 -31
-152 -64 -67 -33 -124 -60 -127 -60 -3 0 -6 70 -6 156 l0 156 -64 107 c-35 58
-68 116 -75 128 -14 28 -26 128 -26 226 l0 78 80 28 c44 15 131 47 193 71
l113 44 -38 23 c-21 13 -50 29 -65 36 -16 6 -28 15 -28 19 0 5 -5 8 -10 8 -6
0 -48 25 -94 56 -66 43 -110 64 -196 90 -62 19 -115 34 -119 34 -4 0 -72 64
-151 143 -158 155 -234 214 -356 275 -135 68 -317 127 -454 147 -24 4 -47 8
-51 11 -14 8 -234 15 -639 19 -234 3 -447 7 -475 9 -46 3 -160 9 -405 21 -331
16 -312 14 -335 39 -55 59 -189 100 -405 123 -95 10 -729 10 -875 0 -60 -5
-132 -10 -160 -12 -99 -7 -221 -16 -255 -20 -19 -2 -65 -7 -101 -10 l-67 -7
-7 39 c-20 121 -183 285 -431 436 -77 46 -141 81 -389 211 -110 58 -258 109
-369 126 -208 34 -373 -38 -450 -196 -25 -51 -31 -69 -40 -113 -3 -15 2 -15
-261 -25 -226 -9 -388 -16 -505 -21 -58 -3 -181 -7 -272 -11 l-166 -6 -10 44
c-6 24 -25 90 -42 148 -17 58 -39 131 -48 163 -12 43 -22 59 -37 62 -46 10
-119 15 -265 21 -100 3 -185 12 -241 25 -48 11 -95 22 -105 24 -11 2 -73 18
-139 36 -72 19 -144 32 -180 32 -58 0 -222 -12 -258 -19 -9 -1 -56 -6 -105
-10 -76 -6 -104 -8 -147 -13 -5 -1 -25 -28 -44 -60 -38 -67 -31 -66 -133 -8
-44 25 -79 55 -106 90 -22 29 -48 61 -58 72 -89 95 -262 177 -434 205 -41 6
-86 14 -100 17 -29 6 -446 14 -451 8z"/>
<path d="M36300 55371 c0 -4 12 -17 26 -27 152 -112 155 -115 192 -190 l36
-74 48 0 c53 0 50 -7 50 99 0 24 6 54 14 66 40 61 -54 103 -271 121 -38 3 -76
7 -82 9 -7 3 -13 1 -13 -4z"/>
<path d="M38549 54056 c-2 -2 -69 -7 -149 -11 -80 -4 -163 -9 -185 -11 -22 -1
-52 -3 -68 -3 l-27 -1 60 -120 c42 -83 64 -119 73 -114 7 5 57 46 112 93 55
47 109 93 120 102 54 45 79 68 74 69 -3 0 -8 -2 -10 -4z"/>
<path d="M36350 53671 l-35 -6 -1 -100 c-1 -55 4 -126 10 -158 l11 -59 108
-85 109 -86 51 7 c47 5 94 14 182 31 17 3 33 9 37 13 3 4 27 58 52 121 45 110
46 115 30 140 -47 75 -177 155 -285 176 -49 9 -228 13 -269 6z"/>
<path d="M39445 53333 c-49 -13 -101 -27 -115 -29 -14 -3 -50 -11 -80 -19
-131 -34 -324 -67 -384 -67 -34 1 -37 -1 -20 -12 11 -7 44 -23 74 -35 30 -13
77 -34 104 -47 l49 -24 116 62 c64 33 159 84 211 111 52 28 111 59 130 69 47
23 23 21 -85 -9z"/>
<path d="M37103 53081 c-29 -9 -55 -20 -59 -24 -4 -4 -14 -7 -23 -7 -9 -1 -29
-6 -45 -13 l-28 -12 105 -93 c58 -50 107 -92 109 -92 3 0 4 59 4 130 0 72 -3
130 -6 129 -3 -1 -28 -9 -57 -18z"/>
<path d="M39338 53005 c-1 -2 -30 -6 -63 -9 -73 -8 -149 -18 -152 -20 -1 -1
11 -29 25 -63 22 -50 40 -72 99 -121 40 -33 78 -66 85 -74 33 -36 138 -149
184 -198 87 -95 138 -155 203 -240 19 -25 40 -49 46 -55 6 -5 17 -19 25 -31 8
-12 38 -48 66 -80 29 -32 61 -70 73 -84 11 -14 20 -23 21 -20 0 9 -31 153 -35
159 -1 3 -6 24 -9 46 -3 22 -8 51 -11 65 -7 32 -20 105 -50 265 -3 17 -8 53
-11 80 -3 28 -7 57 -9 65 -8 28 -16 105 -19 183 -2 43 -5 79 -7 81 -2 2 -31 6
-64 10 -33 3 -78 9 -100 12 -22 3 -60 7 -85 9 -84 6 -185 16 -197 20 -6 2 -13
2 -15 0z"/>
<path d="M37897 52467 c-9 -18 -34 -63 -55 -101 l-38 -70 -85 -26 -84 -27 100
-65 c95 -61 194 -124 224 -143 8 -4 -2 13 -22 40 l-37 48 5 91 c7 143 17 260
21 268 2 4 0 9 -4 12 -5 3 -16 -9 -25 -27z"/>
<path d="M39960 51996 c0 -2 17 -15 38 -29 41 -28 49 -35 178 -154 49 -45 98
-90 110 -100 20 -17 166 -152 276 -253 l48 -45 -21 -61 -21 -61 -61 -18 c-34
-10 -102 -32 -152 -48 -79 -26 -107 -30 -225 -32 -74 -2 -144 -6 -155 -9 -11
-3 -48 -13 -82 -22 l-62 -16 -49 -87 c-49 -86 -52 -95 -68 -247 l-6 -61 84
-18 c45 -10 88 -20 93 -21 6 -1 40 -9 77 -18 50 -11 126 -16 303 -16 132 -1
249 -6 265 -12 51 -17 50 -4 -4 42 -121 103 -166 200 -110 236 27 18 162 24
235 10 l36 -6 32 133 c18 73 35 138 40 145 5 8 27 -1 76 -33 39 -25 79 -49 90
-54 11 -5 81 -72 155 -148 125 -128 140 -148 205 -267 84 -155 189 -319 242
-378 25 -27 40 -54 41 -73 5 -69 17 -112 61 -204 24 -52 111 -133 175 -164 31
-16 94 -36 139 -46 49 -11 104 -31 137 -51 30 -18 119 -66 197 -106 128 -66
143 -72 152 -56 17 33 61 145 58 149 -2 2 -30 5 -63 8 -74 6 -142 14 -174 20
-14 3 -34 7 -45 9 -254 48 -418 171 -443 331 -12 77 -4 96 48 113 25 8 47 16
49 18 5 4 15 102 16 152 0 42 -2 45 -50 73 -27 17 -58 32 -67 36 -10 3 -18 9
-18 14 0 5 -4 9 -9 9 -6 0 -37 16 -70 35 -42 25 -58 40 -54 50 9 26 -19 47
-154 111 -258 122 -390 256 -462 470 -31 92 -34 132 -35 401 l-1 253 -48 51
c-26 28 -47 47 -48 42 0 -4 -2 -17 -4 -27 -9 -47 -24 -351 -25 -502 0 -16 -13
-8 -67 44 -171 163 -455 342 -725 458 -43 18 -78 32 -78 30z"/>
<path d="M41688 51463 c6 -2 18 -2 25 0 6 3 1 5 -13 5 -14 0 -19 -2 -12 -5z"/>
<path d="M41735 51456 c6 -3 54 -18 108 -35 231 -72 416 -187 552 -344 46 -54
117 -196 128 -257 3 -14 8 -42 12 -62 4 -21 8 -68 9 -105 l2 -68 48 -13 47
-14 86 74 86 74 25 99 c15 63 38 121 61 159 21 36 35 70 33 84 -6 38 -85 105
-183 155 -52 26 -98 47 -102 47 -5 0 -23 6 -40 14 -27 13 -220 71 -267 81 -8
2 -55 13 -104 25 -159 38 -543 104 -501 86z"/>
<path d="M42970 48969 c0 -6 7 -23 15 -39 9 -17 15 -31 14 -32 0 -2 4 -14 9
-28 6 -14 23 -59 38 -100 31 -88 39 -97 119 -140 33 -18 75 -41 93 -52 19 -12
37 -17 42 -12 4 5 31 92 59 194 29 102 54 194 58 205 3 11 -12 -4 -33 -33 -51
-68 -122 -106 -185 -97 -61 8 -119 39 -179 96 -27 26 -50 43 -50 38z"/>
<path d="M42807 48097 c4 -6 17 -23 29 -37 13 -14 32 -36 44 -50 12 -14 40
-45 64 -70 68 -73 156 -208 173 -263 17 -56 16 -54 28 -109 4 -21 9 -38 12
-38 14 0 162 83 188 106 17 14 41 34 55 44 l24 18 -48 28 c-41 25 -180 126
-196 144 -3 3 -14 10 -25 17 -94 57 -185 113 -263 163 -51 32 -89 54 -85 47z"/>
<path d="M51325 48082 c-11 -2 -58 -17 -105 -32 -154 -51 -283 -81 -409 -95
-30 -4 -63 -9 -75 -11 -12 -2 -109 -4 -218 -5 -165 0 -198 -2 -209 -15 -11
-13 -10 -21 2 -42 16 -30 63 -45 184 -62 39 -5 79 -11 90 -14 11 -2 40 -7 65
-11 60 -9 80 -15 80 -24 0 -4 -6 -8 -13 -8 -8 0 -49 -15 -93 -33 -284 -118
-751 -288 -1044 -380 -91 -28 -176 -55 -190 -60 -196 -70 -895 -237 -1170
-280 -41 -6 -82 -14 -90 -17 -8 -3 -31 -6 -50 -8 -19 -1 -107 -12 -195 -23
-468 -60 -850 -70 -1025 -27 -174 43 -233 108 -255 280 -8 72 -24 113 -48 130
-54 38 -92 4 -103 -92 -4 -37 -8 -70 -9 -73 -1 -3 -5 -39 -9 -80 -5 -41 -10
-84 -12 -95 -3 -11 -7 -63 -11 -116 -15 -231 60 -304 345 -336 132 -15 509 -9
707 12 22 2 67 7 100 10 222 22 611 87 955 160 154 33 456 107 630 155 63 18
129 36 145 40 17 5 88 25 159 45 71 20 139 39 150 41 12 2 44 8 71 13 28 6 66
13 85 17 53 10 553 13 655 4 50 -4 127 -11 171 -14 45 -4 97 -8 115 -11 19 -2
61 -6 94 -9 78 -8 135 -15 215 -27 36 -5 81 -11 100 -13 108 -13 387 -63 515
-92 194 -43 282 -83 318 -144 14 -23 15 -34 7 -49 -39 -74 -425 -187 -735
-216 -33 -3 -80 -7 -105 -10 -54 -5 -511 -5 -590 0 -112 8 -197 17 -285 30
-49 7 -97 13 -105 13 -8 0 -67 14 -130 30 -120 32 -210 68 -246 99 -35 31 -72
105 -94 188 -20 74 -52 125 -79 125 -23 0 -53 -38 -56 -72 -2 -21 -6 -41 -8
-45 -5 -8 -11 -49 -26 -175 -4 -32 -7 -95 -6 -140 3 -126 36 -176 153 -230 54
-24 238 -75 337 -93 130 -23 208 -35 259 -40 32 -3 62 -7 65 -10 14 -8 294
-20 476 -20 497 0 884 61 1208 189 190 75 236 152 238 405 1 53 -4 108 -9 123
-24 59 -177 140 -357 188 -58 15 -364 80 -373 79 -4 -1 -9 -1 -12 1 -15 5
-339 57 -415 66 -33 3 -68 8 -78 10 -10 2 -64 8 -120 14 -56 6 -118 13 -137
15 -19 2 -71 7 -115 10 -44 4 -98 9 -120 10 -22 2 -72 5 -112 7 -73 2 -85 10
-36 23 72 17 827 304 948 360 102 46 157 119 155 207 0 24 2 76 4 117 2 41 -1
85 -7 98 -14 31 -61 45 -112 35z"/>
<path d="M44440 47813 c-157 -190 -254 -289 -303 -307 -88 -33 -182 -22 -277
30 l-45 24 40 -34 c22 -18 57 -50 79 -69 59 -54 85 -62 148 -43 l53 15 95 -48
c94 -47 223 -82 241 -64 5 5 11 38 14 75 3 36 7 74 9 84 2 11 7 53 11 94 4 41
9 84 11 95 2 11 7 45 10 75 3 30 8 73 10 95 6 43 12 105 10 105 -1 0 -48 -57
-106 -127z"/>
<path d="M42485 47495 l-161 -163 81 -165 c44 -91 83 -166 87 -166 3 -1 9 14
13 32 4 17 13 55 21 82 15 54 134 532 134 540 0 15 -29 -12 -175 -160z"/>
<path d="M43323 46605 c-74 -20 -129 -50 -193 -104 -65 -54 -67 -56 -125 -142
-48 -71 -52 -81 -32 -74 6 2 23 6 37 9 21 4 128 26 195 42 11 2 79 15 150 29
72 14 141 27 155 30 14 3 39 7 55 10 17 2 75 10 130 19 131 19 176 25 200 26
54 1 -199 129 -302 153 -82 19 -206 20 -270 2z"/>
<path d="M52730 45594 c-167 -42 -368 -62 -580 -58 -96 2 -191 6 -210 8 -139
19 -134 19 -162 -3 -30 -24 -28 -48 5 -79 21 -20 116 -51 265 -87 41 -10 70
-21 65 -26 -4 -4 -78 -24 -163 -43 -85 -19 -175 -40 -200 -45 -61 -14 -313
-58 -495 -86 -43 -7 -242 -34 -290 -40 -202 -23 -233 -34 -257 -87 -18 -37
-36 -136 -42 -221 -8 -115 4 -122 169 -102 94 12 110 14 200 21 150 11 296 7
435 -11 19 -3 54 -7 78 -10 93 -11 131 -17 212 -30 47 -8 99 -16 115 -19 262
-41 789 -169 1075 -261 209 -67 320 -137 320 -202 0 -37 -17 -48 -140 -90 -8
-3 -26 -7 -40 -9 -14 -2 -36 -6 -50 -10 -14 -3 -34 -8 -45 -9 -25 -4 -92 -15
-125 -20 -137 -23 -568 -23 -735 0 -16 2 -52 6 -80 9 -366 40 -682 114 -883
208 -112 52 -153 108 -178 248 -18 97 -30 127 -57 142 -35 18 -69 -19 -90 -98
-50 -190 -73 -340 -62 -403 10 -59 71 -122 158 -165 80 -38 307 -117 384 -132
6 -1 27 -7 45 -13 36 -11 312 -68 368 -75 19 -3 69 -9 110 -15 224 -30 303
-35 600 -35 351 -1 476 12 720 74 266 68 340 140 366 355 17 138 6 170 -75
228 -137 99 -414 195 -936 326 -310 78 -762 163 -917 173 -57 3 -45 15 23 22
52 6 315 53 399 72 65 14 424 106 462 118 24 7 61 18 83 24 204 58 288 96 300
137 14 47 31 187 30 241 -3 92 -44 111 -175 78z"/>
<path d="M45807 45584 c-72 -17 -105 -34 -144 -74 -81 -83 -63 -247 35 -320
26 -19 74 -57 108 -85 59 -48 83 -68 169 -135 22 -17 41 -28 42 -23 11 38 45
206 48 238 4 40 14 188 20 278 1 27 -3 67 -10 90 l-12 42 -99 1 c-55 1 -125
-5 -157 -12z"/>
<path d="M45035 45361 c60 -120 77 -194 59 -247 -8 -21 -14 -40 -14 -41 0 -2
-7 -3 -15 -3 -8 0 -15 -4 -15 -10 0 -5 10 -10 23 -10 36 0 389 -119 452 -153
37 -19 1 14 -138 128 -124 101 -136 114 -151 160 -26 80 -86 156 -171 214
l-75 52 45 -90z"/>
<path d="M44123 45223 c-9 -3 -10 -10 -4 -22 8 -14 423 -310 498 -356 9 -5 24
-15 32 -22 9 -7 77 -55 151 -107 98 -68 137 -90 142 -81 5 7 9 35 10 62 l3 48
-115 77 c-63 42 -119 77 -123 77 -4 1 -13 6 -20 12 -18 16 -286 179 -294 179
-3 0 -14 6 -22 14 -17 15 -179 98 -221 114 -14 5 -31 7 -37 5z"/>
<path d="M45602 44453 c0 -213 -42 -328 -129 -352 -49 -14 -111 8 -196 70
l-67 49 34 -63 c65 -122 130 -213 197 -279 85 -83 126 -99 194 -74 103 40 149
109 149 226 0 41 -3 93 -7 115 -12 65 -65 210 -109 298 -67 134 -66 134 -66
10z"/>
<path d="M46096 44103 c-7 -7 66 -145 115 -219 27 -39 76 -99 110 -132 l62
-60 33 44 c19 24 34 46 34 49 0 3 -22 16 -48 29 -42 21 -52 33 -74 83 -15 32
-34 87 -44 123 -9 36 -21 70 -26 75 -8 9 -153 16 -162 8z"/>
<path d="M52454 43139 c-43 -12 -54 -28 -110 -156 l-49 -113 -200 5 c-114 2
-224 -1 -255 -6 -69 -13 -145 -54 -173 -93 -26 -36 -46 -159 -40 -241 9 -124
57 -168 182 -169 72 -1 197 11 213 21 4 2 38 6 75 9 180 13 230 37 299 144 24
38 52 71 62 74 22 7 158 15 282 17 94 1 430 -10 461 -16 8 -2 65 -6 125 -10
60 -4 116 -9 124 -10 8 -2 49 -6 90 -9 41 -4 86 -9 100 -11 14 -2 50 -7 80
-10 170 -17 241 -33 271 -61 39 -35 17 -71 -89 -146 -151 -108 -413 -256 -607
-343 -131 -59 -375 -143 -493 -170 -55 -13 -72 -13 -125 -1 -34 8 -82 17 -107
20 -25 3 -56 8 -70 11 -40 9 -363 9 -390 0 -37 -12 -57 -43 -80 -130 -30 -110
-32 -214 -4 -252 50 -67 159 -94 359 -89 135 4 230 20 435 77 157 43 224 41
545 -16 44 -8 254 -64 300 -80 95 -33 273 -99 310 -115 22 -10 65 -28 95 -41
60 -24 78 -36 58 -36 -89 -1 -365 -40 -558 -79 -215 -43 -665 -168 -820 -229
-19 -7 -69 -26 -110 -40 -41 -15 -89 -33 -107 -41 -17 -8 -34 -14 -38 -14 -10
0 -89 -39 -106 -52 -45 -37 -30 -82 81 -239 77 -108 91 -122 144 -149 33 -17
66 -30 75 -30 14 0 106 -20 274 -59 20 -5 37 -7 37 -4 0 3 6 1 13 -4 6 -5 52
-20 100 -33 77 -20 91 -21 113 -9 34 18 43 38 32 76 -11 42 -32 53 -223 114
-84 27 -170 56 -190 65 l-37 15 45 24 c195 104 634 229 1082 309 137 24 162
28 275 41 30 4 66 9 80 11 14 2 70 6 125 10 97 6 103 5 160 -24 133 -66 148
-55 191 138 27 121 19 188 -25 231 -10 9 -65 30 -123 48 -103 30 -587 193
-604 203 -13 8 -531 176 -589 191 l-50 14 80 37 c44 21 96 45 115 54 142 65
546 317 627 391 58 54 67 76 69 175 3 118 -12 260 -31 297 -41 79 -158 135
-340 164 -154 24 -229 34 -280 39 -178 17 -361 27 -573 32 -130 3 -240 7 -243
10 -4 2 -10 0 -14 -6 -4 -6 -11 -8 -16 -5 -5 4 -48 6 -97 5 -119 -1 -135 -1
-140 5 -3 2 2 42 11 87 9 46 15 98 14 116 -5 54 -45 78 -103 61z"/>
<path d="M51340 39890 c-77 -10 -96 -17 -124 -50 -26 -31 -41 -91 -50 -199 -5
-60 -9 -68 -50 -110 -60 -63 -96 -119 -96 -151 0 -36 32 -95 142 -258 152
-228 351 -482 402 -513 61 -37 106 -14 106 57 0 44 -18 81 -95 199 -187 288
-260 447 -229 506 7 14 23 33 36 41 74 49 299 49 533 1 115 -23 174 -53 213
-108 34 -49 70 -68 107 -59 53 13 140 275 120 364 -11 49 -67 99 -145 128
-164 62 -320 102 -497 127 -93 13 -112 15 -208 21 -55 3 -102 7 -105 8 -3 1
-30 -1 -60 -4z"/>
<path d="M54398 39675 c-2 -2 -28 -6 -58 -9 -148 -17 -288 -100 -600 -355
-110 -90 -123 -101 -206 -172 -71 -62 -160 -139 -219 -189 -27 -23 -57 -49
-65 -56 -8 -8 -44 -38 -80 -66 -36 -29 -67 -55 -70 -58 -3 -3 -50 -39 -105
-80 -55 -41 -104 -79 -110 -83 -45 -36 -229 -147 -310 -187 -140 -69 -204 -84
-355 -85 -150 0 -222 19 -345 91 -124 73 -205 66 -205 -18 0 -41 42 -101 102
-148 29 -23 61 -48 71 -56 46 -37 158 -114 223 -152 163 -95 343 -125 519 -85
119 26 271 99 450 217 99 65 305 215 325 236 3 3 27 24 55 45 60 48 298 247
305 255 28 33 491 390 506 390 3 0 23 13 43 29 79 62 268 152 346 165 328 54
495 -44 531 -313 3 -25 8 -55 11 -66 9 -42 3 -201 -12 -303 -41 -283 -194
-668 -370 -932 -100 -149 -212 -273 -328 -360 -48 -35 -70 -45 -120 -52 -131
-18 -152 -80 -60 -179 81 -87 226 -169 299 -169 14 0 39 7 57 16 34 18 133 93
176 134 15 14 49 46 76 71 60 56 129 130 171 184 43 57 114 163 114 171 0 4 6
15 14 23 20 22 157 298 200 404 38 92 113 304 121 341 2 11 16 75 31 141 24
107 27 141 28 310 1 197 -9 264 -51 354 -40 84 -125 164 -226 212 -50 23 -98
55 -122 80 -128 134 -341 252 -519 289 -52 11 -230 22 -238 15z"/>
<path d="M55086 34821 c-27 -30 -13 -72 41 -117 25 -22 53 -43 61 -48 8 -5 24
-17 36 -27 12 -9 48 -38 81 -64 l60 -46 -50 6 c-89 12 -357 63 -500 95 -77 17
-151 33 -165 36 -13 3 -94 23 -180 46 -85 22 -162 41 -170 43 -8 2 -64 18
-125 35 -147 42 -197 47 -230 26 -44 -29 -165 -231 -165 -275 0 -35 37 -57
143 -86 268 -74 438 -146 690 -294 149 -87 440 -276 577 -374 96 -69 352 -259
360 -267 3 -3 55 -46 115 -95 210 -171 299 -274 310 -354 9 -72 -90 -82 -309
-31 -44 10 -84 16 -88 14 -4 -3 -8 -1 -8 4 0 5 -23 14 -51 20 -168 39 -561
218 -829 377 -282 168 -442 287 -589 435 -97 99 -120 147 -116 248 2 43 8 90
14 106 31 80 17 146 -32 146 -35 0 -103 -78 -209 -240 -72 -109 -93 -157 -92
-215 1 -72 33 -126 138 -231 518 -516 1549 -1007 2098 -1000 141 2 209 48 300
201 45 76 61 127 53 166 -4 16 -29 62 -55 102 -61 90 -173 200 -385 376 -41
34 -293 229 -365 282 -271 201 -750 509 -792 509 -6 0 -9 2 -6 5 3 3 48 -5 99
-19 90 -24 186 -46 294 -66 28 -6 61 -12 75 -15 42 -8 192 -33 243 -40 27 -4
56 -8 65 -10 31 -5 122 -17 242 -30 25 -3 65 -7 90 -11 164 -20 233 -10 273
39 39 50 108 188 113 231 6 42 5 46 -25 64 -17 10 -84 29 -148 41 -284 55
-418 105 -783 292 -65 34 -81 35 -104 10z"/>
<path d="M56421 32733 c-5 -10 -10 -21 -10 -26 -2 -12 26 -60 54 -92 61 -70
79 -148 55 -237 -35 -125 -265 -358 -500 -507 -36 -22 -70 -44 -76 -48 -55
-41 -376 -194 -559 -268 -197 -79 -594 -215 -629 -215 -28 0 -193 103 -316
196 -109 83 -235 208 -313 309 -70 90 -77 105 -66 133 9 23 13 24 77 18 37 -3
85 -9 107 -14 22 -6 56 -13 75 -17 57 -12 168 -75 200 -114 59 -70 59 -70 92
-59 38 13 73 67 113 175 42 111 40 145 -15 194 -87 79 -400 203 -543 215 -78
7 -105 -1 -157 -48 -24 -21 -90 -121 -90 -134 0 -4 -32 -40 -70 -81 -39 -41
-75 -85 -80 -98 -10 -26 -2 -63 24 -113 42 -81 245 -292 405 -422 24 -19 62
-50 85 -68 22 -19 50 -41 61 -50 11 -10 73 -56 136 -104 111 -82 116 -88 123
-130 9 -57 43 -125 71 -144 21 -14 30 -14 89 1 49 12 68 14 78 5 16 -14 300
-194 352 -223 21 -12 46 -27 55 -32 9 -6 27 -16 39 -24 13 -7 22 -15 19 -17
-14 -14 -697 143 -1052 242 -399 112 -925 295 -1190 414 -22 10 -67 29 -100
43 -80 33 -407 194 -520 255 -414 223 -653 401 -720 532 -46 91 -39 164 29
298 35 69 33 130 -3 149 -39 19 -65 -2 -206 -167 -169 -197 -212 -260 -227
-331 -18 -89 3 -132 121 -249 254 -252 778 -540 1531 -842 686 -275 1596 -550
2410 -728 80 -17 183 -40 230 -50 323 -72 398 -85 433 -76 43 10 108 82 155
171 84 159 76 172 -138 235 -229 68 -435 155 -610 259 -91 54 -298 202 -304
217 -3 7 21 21 57 34 288 105 729 322 1032 508 87 54 322 214 367 250 199 160
304 279 330 376 32 119 -72 253 -350 453 -93 67 -142 81 -161 46z"/>
<path d="M53683 28581 c-35 -22 -55 -54 -72 -116 -6 -22 -27 -58 -46 -80 -99
-109 -84 -149 129 -360 352 -347 704 -634 1151 -940 148 -101 150 -101 -50
-10 -73 33 -486 240 -555 278 -340 187 -403 225 -497 299 -35 26 -72 48 -84
48 -28 0 -79 -55 -130 -141 -75 -125 -69 -160 48 -268 108 -101 277 -267 383
-378 127 -132 166 -151 190 -88 12 31 1 59 -37 101 -26 29 -115 133 -138 161
-11 13 -14 17 -65 82 l-34 45 69 -39 c190 -104 258 -140 451 -235 293 -144
846 -390 876 -390 8 0 18 -4 23 -9 6 -4 56 -27 112 -50 182 -74 224 -62 328
94 83 125 87 134 67 165 -9 14 -20 30 -26 35 -28 27 -132 88 -246 146 -612
307 -1084 643 -1521 1081 -193 193 -217 236 -129 230 78 -5 207 -49 370 -125
87 -40 135 -49 176 -32 38 16 169 143 178 173 11 33 -9 73 -47 98 -105 67
-451 186 -637 218 -19 3 -46 9 -60 12 -14 3 -52 8 -85 10 -49 4 -66 1 -92 -15z"/>
<path d="M53493 26213 c-80 -46 -213 -176 -213 -210 0 -27 39 -70 95 -103 130
-77 291 -205 420 -335 166 -165 188 -189 365 -406 128 -157 128 -157 241 -310
55 -74 105 -141 112 -149 29 -35 219 -324 283 -430 76 -125 103 -179 114 -225
4 -16 9 -34 10 -40 7 -30 -2 -77 -19 -94 -26 -26 -74 -15 -184 40 -149 75
-305 183 -474 325 -205 174 -470 456 -636 678 -37 50 -73 98 -80 107 -14 18
-20 27 -84 134 -139 230 -144 314 -32 490 36 56 42 87 22 114 -24 35 -61 22
-191 -72 -126 -89 -236 -192 -254 -235 -15 -37 -12 -119 7 -172 38 -107 172
-326 320 -525 321 -429 771 -844 1142 -1053 80 -45 226 -112 287 -132 50 -16
132 -16 182 0 81 27 227 152 248 214 21 61 -5 170 -73 305 -61 121 -322 531
-343 539 -4 2 -8 8 -8 14 0 11 -17 35 -216 303 -99 135 -308 392 -394 485 -18
19 -46 50 -64 69 -34 37 -29 35 59 -23 152 -102 568 -323 815 -434 265 -118
309 -129 368 -89 50 34 156 138 177 175 35 58 13 85 -130 162 -219 118 -371
235 -583 446 -62 62 -121 116 -132 119 -34 11 -60 -12 -60 -52 0 -38 23 -80
111 -203 95 -134 98 -130 -47 -56 -71 36 -140 72 -154 80 -30 17 -152 86 -200
113 -111 63 -327 198 -543 339 -173 114 -210 127 -264 97z"/>
<path d="M50625 24644 c-16 -8 -39 -20 -50 -27 -419 -251 -458 -285 -459 -402
0 -63 5 -81 49 -169 108 -216 302 -454 636 -782 74 -72 163 -158 198 -190 36
-33 72 -66 80 -74 61 -57 331 -289 456 -389 83 -67 158 -128 168 -137 82 -68
533 -400 661 -486 10 -7 28 -20 40 -29 58 -44 536 -359 545 -359 6 0 11 -4 11
-10 0 -5 4 -10 9 -10 5 0 36 -17 68 -39 65 -43 373 -232 501 -307 46 -27 95
-57 110 -66 143 -89 235 -130 292 -130 54 1 77 11 164 74 77 56 101 88 92 124
-8 29 -84 107 -204 209 -114 97 -419 410 -541 554 -314 373 -623 842 -732
1111 -37 92 -68 223 -58 243 37 68 370 -85 764 -352 100 -67 438 -316 468
-344 6 -7 59 -50 117 -97 58 -46 139 -113 180 -148 41 -36 86 -74 100 -86 14
-11 57 -48 95 -82 81 -71 103 -84 141 -84 47 0 189 121 215 184 22 51 -2 90
-125 211 -109 107 -209 223 -390 450 -48 61 -95 119 -104 130 -9 11 -55 72
-103 136 -84 112 -133 154 -166 142 -21 -8 -27 -50 -12 -86 12 -30 207 -353
233 -387 9 -12 8 -13 -4 -4 -411 312 -691 495 -976 637 -164 82 -239 108 -319
108 -79 1 -103 -12 -186 -98 -37 -38 -89 -87 -115 -108 -63 -51 -73 -64 -74
-95 -2 -155 263 -681 541 -1075 67 -95 315 -414 338 -435 4 -3 42 -45 86 -94
47 -52 70 -84 55 -76 -183 97 -840 518 -1046 670 -34 25 -105 77 -159 115 -54
39 -103 75 -109 80 -6 6 -51 42 -101 80 -224 173 -422 342 -633 540 -74 70
-319 316 -363 366 -13 15 -40 44 -59 65 -20 22 -62 71 -95 109 -32 39 -64 76
-71 83 -34 34 -165 224 -193 280 -61 122 -71 222 -28 292 12 19 49 65 84 102
83 88 95 140 37 166 -14 7 -26 12 -27 12 -1 -1 -15 -7 -32 -16z"/>
<path d="M50237 21689 c-25 -17 -74 -57 -107 -89 -79 -78 -80 -102 -9 -170
l52 -50 -26 -9 c-32 -12 -177 -100 -195 -118 -7 -7 -17 -13 -21 -13 -14 0
-128 -116 -144 -146 -113 -218 -27 -769 214 -1377 40 -101 43 -109 100 -237
183 -412 524 -947 759 -1191 183 -191 217 -223 330 -314 171 -138 344 -238
458 -265 55 -13 165 -16 220 -6 83 16 208 69 323 139 41 24 85 48 99 52 130
39 241 155 299 311 45 119 56 204 56 429 0 190 -8 276 -41 470 -45 266 -148
667 -220 860 -4 11 -8 25 -9 30 -5 20 -67 181 -85 223 -20 43 -19 52 4 30 7
-7 58 -53 112 -103 329 -299 668 -643 834 -845 25 -30 53 -64 63 -75 28 -31
138 -188 179 -257 60 -98 82 -163 81 -243 0 -92 -16 -124 -106 -217 -75 -77
-95 -116 -82 -157 8 -28 55 -44 88 -32 43 17 262 158 367 237 180 136 236 217
227 329 -9 124 -73 210 -407 550 -310 316 -631 610 -1001 917 -24 20 -54 44
-66 55 -11 10 -41 34 -64 53 -102 82 -227 188 -268 225 -78 72 -87 126 -46
290 28 112 26 145 -12 175 -62 49 -130 11 -318 -177 -121 -120 -138 -167 -100
-268 13 -35 19 -66 15 -75 -20 -38 -130 -317 -130 -328 0 -7 -4 -12 -10 -12
-5 0 -10 -5 -10 -12 0 -6 -13 -40 -30 -75 -16 -34 -30 -65 -30 -68 0 -7 -124
-259 -130 -265 -3 -3 -10 -15 -15 -27 -6 -12 -49 -63 -97 -113 -49 -50 -88
-99 -88 -109 0 -10 12 -24 28 -31 32 -15 231 -24 264 -11 62 24 125 111 188
261 18 41 38 89 45 105 10 23 114 277 164 399 6 15 18 -7 55 -100 43 -106 132
-354 141 -394 2 -8 19 -69 39 -135 48 -164 111 -428 151 -635 30 -156 51 -368
49 -500 -3 -164 -16 -238 -61 -340 -32 -72 -74 -115 -153 -155 -135 -67 -289
-68 -434 -2 -156 71 -380 251 -559 448 -87 95 -98 108 -158 184 -84 107 -299
423 -299 440 0 2 -17 32 -39 66 -21 35 -74 134 -118 219 -174 339 -281 614
-353 912 -36 147 -40 172 -59 343 -31 291 46 560 159 557 71 -2 320 -183 472
-344 47 -49 56 -63 48 -78 -25 -48 -1 -89 53 -90 36 0 101 65 174 174 59 87
72 131 52 179 -18 42 -239 264 -359 359 -184 146 -381 268 -433 268 -13 0 -44
-14 -70 -31z"/>
<path d="M2785 20463 c-57 -21 -130 -62 -160 -91 -12 -10 -26 -21 -32 -23 -55
-21 -206 -175 -279 -284 -105 -157 -244 -421 -244 -463 0 -30 26 -66 53 -76
34 -11 85 23 129 88 72 106 82 119 143 196 145 181 229 233 370 232 224 -2
444 -156 785 -552 36 -41 67 -77 70 -80 39 -36 285 -365 388 -517 l42 -61 -28
-6 c-43 -10 -56 -12 -252 -51 -102 -20 -192 -38 -200 -40 -8 -2 -134 -26 -280
-55 -146 -29 -274 -54 -285 -56 -11 -2 -31 -6 -45 -9 -14 -2 -115 -22 -225
-44 -272 -54 -243 -54 -301 5 -85 86 -160 134 -201 128 -7 -1 -20 -2 -28 -3
-9 0 -26 -11 -38 -24 -32 -33 -107 -117 -148 -168 -20 -24 -45 -54 -55 -66
-15 -17 -49 -28 -149 -48 -175 -36 -352 -63 -362 -56 -4 3 -21 32 -37 64 -30
60 -62 89 -108 101 -50 12 -472 -109 -623 -178 -136 -63 -166 -109 -145 -224
42 -228 61 -257 174 -257 39 0 82 3 96 7 14 3 181 49 372 102 293 82 775 208
843 222 11 2 70 14 130 27 171 36 154 44 250 -113 45 -74 141 -241 213 -371
148 -265 159 -297 123 -367 -38 -75 -29 -105 81 -243 82 -105 138 -155 190
-171 53 -16 88 5 209 122 106 102 103 172 -16 375 -177 299 -306 510 -453 734
-40 63 -76 119 -78 125 -4 9 128 43 311 81 11 2 108 22 215 44 107 22 206 42
220 45 14 2 72 14 130 25 205 40 423 74 550 86 36 4 78 8 93 10 27 2 36 -8
126 -144 240 -360 467 -682 626 -886 106 -136 158 -139 288 -18 158 150 172
172 156 257 -21 115 -192 306 -273 306 -8 0 -40 11 -69 24 -57 25 -79 49 -207
223 -134 182 -149 209 -140 245 33 128 28 237 -11 258 -18 10 -102 19 -190 20
-21 0 -40 22 -118 135 -80 116 -274 380 -323 440 -9 11 -58 72 -109 135 -51
63 -95 117 -98 120 -3 3 -31 34 -61 70 -137 162 -216 247 -375 405 -157 155
-163 160 -256 216 -135 81 -274 107 -374 72z"/>
<path d="M6649 16736 c-2 -2 -42 -7 -89 -11 -47 -3 -92 -8 -100 -10 -8 -2 -35
-7 -60 -10 -153 -19 -224 -31 -470 -81 -361 -74 -716 -164 -1045 -265 -293
-90 -899 -298 -1030 -353 -16 -7 -124 -50 -240 -96 -115 -45 -228 -91 -250
-100 -22 -10 -78 -34 -125 -53 -161 -66 -586 -255 -709 -315 -63 -30 -116 -79
-135 -125 -19 -45 -15 -283 5 -315 13 -22 19 -23 75 -19 33 2 69 9 80 15 78
41 279 102 404 124 30 5 62 12 70 15 8 4 17 6 20 5 3 0 37 4 75 9 39 5 138 12
220 15 151 6 175 12 175 44 0 41 -57 62 -200 74 -41 4 -100 9 -130 13 -30 3
-65 6 -78 7 -12 0 -19 3 -15 7 7 6 233 112 458 214 306 139 697 295 995 396
80 27 152 52 160 56 8 3 20 7 26 8 5 2 68 21 140 43 267 82 678 188 839 216
11 2 47 8 80 14 33 6 75 14 93 17 17 3 47 7 65 10 17 3 57 10 87 15 30 5 116
16 190 25 74 8 155 18 180 21 144 18 425 18 514 -1 165 -35 224 -99 256 -276
20 -107 55 -150 107 -126 30 13 42 48 47 142 3 44 8 118 13 165 11 120 8 278
-6 321 -24 75 -110 133 -226 154 -41 8 -459 17 -466 11z"/>
<path d="M5179 14456 c-2 -2 -53 -6 -114 -10 -60 -3 -135 -10 -165 -16 -30 -5
-75 -11 -100 -14 -148 -17 -373 -63 -604 -126 -261 -70 -604 -235 -698 -336
-51 -55 -71 -119 -70 -220 1 -91 14 -170 32 -205 16 -29 67 -60 142 -85 74
-25 122 -34 313 -58 223 -28 1243 -29 1386 -1 13 3 56 7 94 10 78 6 110 11
125 20 6 3 10 3 10 -2 0 -4 -28 -19 -62 -32 -160 -61 -489 -215 -665 -312 -29
-16 -79 -43 -110 -60 -132 -72 -297 -173 -326 -199 -31 -28 -32 -30 -33 -122
0 -89 4 -119 28 -198 23 -73 61 -76 184 -17 244 119 511 197 789 232 92 12
124 24 131 49 3 13 1 33 -5 44 -18 34 -54 40 -241 43 -77 1 -140 5 -140 8 0 8
332 171 460 227 47 20 103 44 125 54 82 37 275 114 440 176 297 113 291 108
281 263 -11 181 -24 216 -76 217 -19 0 -64 -10 -100 -24 -326 -123 -532 -164
-994 -197 -253 -18 -771 -24 -961 -11 -49 3 -128 9 -175 11 -47 3 -98 8 -115
10 -16 3 -48 7 -70 10 -100 13 -191 65 -200 112 -5 32 46 74 163 132 295 148
687 242 1197 289 102 9 502 9 575 0 249 -31 295 -64 384 -270 13 -31 34 -61
45 -68 27 -14 58 -5 71 20 12 22 15 287 5 375 -18 164 -59 206 -245 252 -59
15 -311 31 -491 32 -119 0 -218 -1 -220 -3z"/>
<path d="M7489 12576 c-3 -3 -34 -10 -69 -15 -83 -14 -102 -17 -230 -41 -58
-10 -184 -33 -281 -50 -97 -17 -185 -32 -196 -34 -48 -10 -69 -34 -63 -75 4
-34 56 -61 110 -56 19 2 100 6 180 10 l145 6 -75 -46 c-107 -67 -159 -106
-298 -223 -155 -131 -428 -402 -552 -548 -265 -313 -362 -517 -292 -614 10
-14 50 -41 89 -60 63 -31 72 -38 72 -63 2 -65 50 -135 116 -170 108 -56 320
-21 775 125 240 77 335 108 350 115 8 3 17 7 20 8 18 4 88 28 105 35 11 4 97
36 190 70 94 35 174 66 179 71 6 5 17 9 25 9 9 1 34 9 56 20 54 26 65 25 65
-8 0 -70 82 -146 138 -126 29 10 35 25 51 145 17 126 6 115 213 203 100 43
193 83 205 90 118 61 192 125 194 169 4 62 -21 157 -67 248 -49 99 -133 94
-350 -21 -221 -117 -363 -234 -417 -343 l-27 -55 -152 -75 c-369 -181 -853
-349 -1260 -436 -122 -26 -174 -27 -215 -1 -35 21 -39 35 -23 90 5 19 9 39 9
44 0 5 3 12 8 15 4 3 21 31 37 61 130 246 478 604 809 833 37 26 70 47 72 47
3 0 28 15 57 34 116 74 371 196 409 196 13 0 37 -5 54 -11 26 -10 38 -9 67 5
63 30 68 81 27 236 -27 99 -62 158 -105 176 -31 13 -145 20 -155 10z"/>
<path d="M45470 12418 c-55 -33 -170 -141 -176 -165 -4 -14 2 -36 16 -58 18
-29 19 -35 6 -35 -34 0 -202 -81 -228 -110 -46 -50 -61 -125 -55 -269 6 -123
8 -142 27 -246 16 -83 19 -97 38 -180 24 -101 98 -358 127 -440 l22 -63 -38
-16 c-39 -18 -79 -59 -79 -82 0 -7 8 -20 17 -29 14 -14 30 -16 84 -13 l67 5
22 -51 c137 -315 415 -775 502 -833 62 -41 201 -53 279 -25 13 5 51 10 84 11
154 5 275 41 332 99 124 124 169 473 139 1082 -13 272 -18 309 -51 340 -21 20
-28 22 -49 12 -40 -18 -53 -58 -60 -182 -13 -216 -16 -265 -20 -310 -42 -434
-125 -745 -226 -847 -18 -18 -42 -33 -53 -33 -104 0 -353 326 -547 714 -90
182 -92 168 42 246 61 36 116 70 122 75 6 6 29 23 51 40 191 143 304 409 255
598 -31 115 -104 234 -222 358 -212 223 -307 328 -335 369 -39 59 -52 64 -93
38z m50 -455 c311 -318 355 -382 355 -512 -1 -95 -29 -159 -111 -249 -48 -53
-212 -192 -227 -192 -9 0 -81 205 -121 348 -73 258 -87 571 -30 660 25 39 53
27 134 -55z"/>
<path d="M9765 10608 c-100 -13 -264 -60 -363 -104 -29 -13 -55 -24 -57 -24
-18 0 -355 -175 -407 -211 -14 -11 -29 -19 -32 -19 -8 0 -246 -152 -326 -208
-367 -258 -549 -454 -589 -633 -43 -201 25 -406 195 -586 33 -34 84 -90 114
-126 113 -133 234 -189 405 -190 116 0 153 5 267 33 327 82 635 242 1005 521
140 106 158 121 256 209 57 51 173 170 209 215 80 98 111 197 111 355 1 227
-40 273 -311 347 -67 18 -129 33 -137 33 -19 0 -22 6 -40 96 -19 95 -50 188
-75 229 -37 59 -106 79 -225 63z m-92 -457 c10 -8 250 -83 307 -96 8 -2 71
-19 138 -39 276 -79 275 -107 -15 -401 -203 -206 -402 -360 -668 -517 -532
-313 -927 -380 -1135 -192 -225 204 116 657 803 1066 147 88 401 208 471 223
12 2 35 8 51 13 28 8 30 7 33 -19 2 -15 9 -32 15 -38z"/>
<path d="M43660 10550 c-7 -4 -18 -6 -25 -4 -6 3 -27 -2 -46 -9 -20 -8 -62
-13 -102 -12 -156 5 -234 -48 -253 -172 -3 -21 -9 -56 -14 -78 -10 -47 -37
-244 -44 -330 -6 -57 -9 -105 -22 -275 -7 -106 -8 -657 0 -830 5 -136 5 -142
-9 -100 -8 25 -19 54 -24 65 -5 11 -24 54 -42 95 -75 178 -196 397 -335 606
-140 211 -174 235 -312 219 -37 -4 -78 -9 -92 -10 -141 -16 -198 -38 -228 -89
-11 -18 -27 -66 -36 -107 -49 -221 -60 -357 -61 -734 0 -305 10 -618 21 -637
3 -4 7 -47 9 -95 l5 -88 -39 114 c-22 63 -47 128 -56 146 -8 18 -15 36 -15 40
0 18 -131 309 -222 493 -129 260 -140 269 -274 232 -63 -17 -93 -20 -150 -15
-122 12 -134 -5 -139 -200 -6 -184 -14 -309 -26 -387 -12 -77 -8 -115 16 -151
28 -43 61 -45 88 -4 12 20 25 71 42 177 3 19 10 54 16 78 5 23 12 59 15 80 3
20 9 55 14 76 5 22 6 44 3 50 -3 5 -1 6 5 3 9 -6 90 -125 138 -202 27 -44 135
-259 168 -335 16 -36 40 -90 54 -120 13 -30 30 -69 37 -85 23 -52 116 -287
140 -355 13 -36 40 -110 60 -165 90 -247 157 -493 154 -564 -4 -109 1 -113
146 -110 170 4 222 22 232 81 3 21 -9 80 -36 178 -49 176 -114 480 -135 630
-10 68 -36 270 -41 315 -49 452 -55 964 -15 1213 6 35 8 67 5 72 -3 5 -1 11 4
14 4 3 12 25 16 48 9 51 8 43 24 90 12 37 43 68 68 68 20 0 50 -38 137 -170
306 -465 533 -1008 681 -1625 32 -135 41 -145 132 -145 73 0 204 25 245 46 26
14 28 18 22 52 -3 20 -14 62 -24 92 -63 192 -141 590 -164 845 -3 33 -9 92
-12 130 -4 39 -8 86 -11 105 -8 75 -11 840 -3 925 18 186 21 211 31 270 33
197 63 266 122 280 35 9 82 -36 146 -139 160 -260 349 -729 500 -1236 50 -167
102 -362 116 -435 12 -59 39 -166 52 -208 26 -83 72 -88 250 -31 44 14 91 36
102 48 21 22 21 24 6 157 -8 74 -17 145 -20 159 -2 14 -7 46 -10 72 -3 26 -7
62 -9 80 -3 18 -8 60 -11 93 -9 84 -14 138 -20 188 -2 23 -7 76 -10 117 -4 41
-8 89 -10 105 -2 17 -7 89 -11 160 -8 167 -18 199 -61 203 -53 5 -68 -29 -70
-168 -1 -146 -4 -196 -11 -239 -5 -35 -5 -35 -18 20 -87 350 -267 781 -458
1101 -79 130 -127 187 -181 213 -39 18 -98 26 -115 15z"/>
<path d="M11885 8970 c-79 -27 -162 -72 -284 -155 -98 -66 -258 -151 -368
-194 -40 -16 -67 -46 -60 -65 9 -22 53 -23 146 -4 47 10 86 17 87 15 2 -2 -28
-26 -65 -55 -255 -194 -606 -557 -824 -852 -23 -30 -49 -64 -60 -75 -110 -118
-123 -246 -34 -335 13 -14 36 -45 52 -70 70 -115 158 -169 254 -156 133 18
658 219 1043 400 51 24 115 54 142 66 27 12 116 55 199 96 157 77 195 91 132
48 -21 -14 -43 -31 -50 -37 -6 -7 -34 -31 -61 -54 -79 -66 -93 -79 -198 -176
-92 -85 -323 -316 -431 -432 -107 -113 -127 -187 -80 -291 54 -119 110 -193
146 -194 28 0 79 31 137 84 31 29 70 64 86 77 16 13 46 38 65 54 39 34 189
146 289 216 131 92 149 108 154 134 6 30 -14 55 -42 55 -11 0 -36 -10 -57 -21
-21 -12 -58 -33 -83 -47 -25 -13 -49 -28 -55 -32 -5 -4 -28 -18 -50 -30 -22
-12 -60 -34 -85 -48 l-45 -26 25 30 c59 68 338 338 464 449 310 272 792 612
915 645 23 6 41 16 41 23 0 21 -57 134 -100 196 -51 76 -89 96 -168 89 -66 -6
-170 -57 -317 -153 -129 -84 -258 -155 -515 -282 -225 -111 -499 -243 -505
-243 -2 0 -51 -22 -110 -50 -59 -27 -108 -50 -110 -50 -3 0 -30 -12 -62 -26
-32 -14 -69 -30 -83 -36 -14 -6 -33 -14 -43 -19 -9 -5 -90 -37 -180 -70 -256
-97 -407 -128 -451 -96 -17 12 -17 18 -6 53 20 61 132 221 250 358 144 167
473 481 665 635 38 31 79 64 90 74 30 27 201 148 264 187 31 19 90 51 131 70
41 19 81 38 88 43 21 16 14 47 -30 126 -47 86 -117 161 -151 162 -12 0 -29 2
-37 3 -8 2 -37 -5 -65 -14z"/>
<path d="M37442 8712 c-159 -45 -256 -247 -316 -662 -9 -58 -18 -134 -21 -170
-4 -36 -8 -83 -11 -105 -19 -189 -25 -952 -11 -1250 9 -181 17 -300 22 -350 4
-37 2 -42 -23 -52 -15 -6 -72 -30 -127 -53 -290 -122 -674 -256 -1005 -352
-155 -45 -321 -88 -337 -88 -5 0 0 199 12 460 2 41 6 140 10 220 3 80 7 170 9
200 20 330 27 878 13 1085 -7 121 -28 214 -55 250 -27 38 -125 73 -211 77 -50
2 -63 -12 -86 -97 -36 -129 -107 -235 -222 -330 -58 -48 -246 -166 -691 -435
-409 -247 -583 -410 -599 -561 -4 -40 0 -60 25 -113 84 -179 369 -517 450
-532 25 -5 41 -2 60 13 43 32 39 60 -21 149 -78 116 -101 175 -94 249 5 67 24
113 80 198 74 111 208 234 592 542 249 199 317 258 402 345 l63 64 1 -54 c0
-30 3 -86 5 -125 4 -77 7 -708 4 -820 -1 -38 -1 -74 0 -80 1 -5 2 -12 1 -15
-1 -3 -4 -66 -6 -140 -9 -307 -21 -547 -31 -606 -3 -25 -11 -33 -32 -39 -61
-14 -211 -96 -250 -136 -83 -84 -72 -161 41 -294 28 -33 54 -62 57 -65 3 -3
35 -37 72 -76 l66 -70 -4 -85 c-5 -133 -13 -250 -20 -299 -18 -139 -59 -300
-75 -300 -5 0 -9 5 -9 10 0 18 -52 58 -125 95 -102 52 -132 58 -156 34 -26
-26 -25 -43 20 -177 21 -65 37 -130 35 -147 -1 -16 -6 -59 -9 -95 -4 -36 -15
-119 -26 -186 -28 -175 -18 -239 41 -269 44 -23 101 -30 237 -30 108 0 125 2
150 21 62 46 92 128 118 319 1 11 7 56 13 100 17 125 50 416 50 445 1 8 3 29
5 45 3 17 8 66 12 110 3 44 8 94 10 110 4 26 11 116 20 225 1 19 6 94 10 165
4 72 9 137 11 145 1 8 3 45 3 82 l1 68 103 51 c56 29 104 52 107 52 3 0 30 13
60 27 152 75 629 247 955 345 228 68 250 75 281 81 l30 6 13 -114 c7 -62 14
-124 16 -138 2 -14 11 -79 20 -145 18 -140 50 -349 65 -420 60 -304 103 -451
156 -543 31 -53 55 -69 119 -78 28 -3 59 -8 70 -10 11 -2 54 -7 95 -10 68 -5
78 -4 104 17 28 22 29 24 23 98 -3 42 -8 87 -11 101 -14 81 -18 142 -17 290 0
90 3 192 6 225 3 33 8 107 10 165 3 58 7 137 10 175 5 75 -9 131 -36 148 -33
21 -90 -40 -104 -112 -4 -19 -28 -145 -50 -259 -9 -45 -14 -86 -11 -90 3 -5 1
-14 -3 -21 -9 -14 -17 26 -27 139 -3 36 -7 72 -9 80 -3 8 -7 51 -10 95 -3 44
-8 91 -10 105 -4 23 -7 54 -20 200 -3 30 -7 95 -11 144 -3 48 -7 98 -10 109
-2 12 -6 75 -9 142 -4 66 -8 140 -10 165 -7 80 -19 510 -19 685 0 179 11 539
18 590 3 17 7 68 10 115 19 266 71 520 137 657 41 85 106 142 192 167 91 25
163 60 177 85 9 18 7 27 -9 50 -16 23 -35 32 -88 45 -168 40 -359 47 -461 18z"/>
<path d="M39740 8058 c-49 -25 -111 -85 -215 -212 -56 -68 -84 -95 -95 -90
-39 15 -208 44 -262 44 -78 0 -122 -22 -152 -74 -120 -207 -134 -722 -36
-1321 6 -33 12 -72 14 -87 32 -204 112 -481 173 -603 105 -207 249 -300 493
-319 94 -7 192 15 480 111 237 79 353 268 404 658 14 106 17 529 4 551 -3 5
-9 41 -12 79 -4 39 -9 77 -11 85 -2 8 -7 35 -10 60 -4 25 -13 77 -22 115 -8
39 -16 79 -19 90 -44 214 -122 460 -191 604 -56 119 -128 193 -241 250 -150
75 -235 92 -302 59z m135 -242 c29 -29 54 -77 106 -207 55 -140 104 -283 130
-382 11 -45 23 -89 26 -97 3 -8 7 -22 8 -30 1 -8 6 -28 9 -45 4 -16 9 -43 12
-60 22 -131 34 -208 38 -255 4 -30 9 -75 11 -100 17 -140 12 -452 -9 -585 -37
-229 -148 -412 -288 -471 -154 -65 -290 30 -423 295 -68 135 -140 371 -174
568 -6 35 -13 75 -16 90 -3 16 -7 48 -10 73 -3 25 -8 54 -10 65 -2 11 -7 49
-10 85 -3 36 -8 85 -11 110 -6 50 -6 296 0 350 2 19 7 60 11 91 l7 57 29 -17
29 -16 48 50 c46 48 146 164 262 304 125 152 173 179 225 127z"/>
<path d="M14643 7499 c-17 -3 -110 -50 -205 -104 -95 -54 -247 -136 -338 -183
-177 -91 -195 -102 -203 -133 -7 -26 25 -59 57 -59 14 0 85 26 158 59 73 32
160 68 193 80 l60 23 -187 -189 c-103 -103 -199 -201 -214 -218 -15 -16 -54
-60 -88 -96 -70 -75 -82 -89 -227 -254 -87 -99 -282 -329 -348 -410 -197 -243
-201 -258 -107 -385 23 -30 48 -62 56 -71 57 -63 85 -89 97 -89 43 0 115 59
319 264 282 283 374 367 619 565 213 172 621 432 880 560 159 79 155 77 183
73 27 -4 28 -16 1 -67 -46 -88 -93 -151 -211 -286 -77 -90 -102 -138 -94 -180
7 -39 55 -140 88 -186 59 -81 114 -54 260 130 185 232 340 504 342 599 1 52
-21 82 -96 135 -22 15 -48 43 -58 62 -42 83 -97 107 -178 80 -149 -51 -652
-348 -974 -576 -38 -27 -87 -61 -110 -78 -67 -47 -253 -190 -360 -277 -54 -43
-98 -76 -98 -72 0 6 94 114 210 239 30 32 127 133 215 223 88 91 165 170 171
176 38 40 267 250 304 280 25 20 50 40 56 45 5 4 21 14 35 21 31 17 48 40 49
65 0 46 -155 228 -202 237 -12 2 -37 1 -55 -3z"/>
<path d="M22293 7411 c-111 -41 -254 -161 -399 -334 -150 -179 -413 -545 -628
-877 -48 -74 -112 -173 -142 -219 -30 -46 -118 -185 -196 -310 -78 -124 -148
-231 -157 -238 -33 -24 -101 -33 -290 -36 -191 -3 -194 -3 -213 -27 -16 -20
-18 -33 -13 -70 12 -84 47 -121 123 -134 17 -3 47 -8 65 -11 17 -3 46 -8 62
-11 17 -3 44 -7 60 -9 19 -2 29 -8 27 -17 -2 -7 -32 -63 -67 -123 -35 -61 -72
-126 -83 -145 -10 -19 -40 -70 -66 -113 -25 -43 -46 -80 -46 -81 0 -2 -34 -64
-76 -137 -100 -175 -299 -536 -384 -694 -23 -44 -59 -111 -80 -150 -122 -229
-392 -762 -473 -935 -19 -41 -55 -118 -79 -170 -25 -52 -71 -153 -102 -225
-32 -71 -65 -146 -74 -165 -22 -48 -21 -145 2 -193 40 -83 240 -267 289 -267
30 0 43 31 52 130 7 76 18 125 52 235 23 77 76 229 93 270 4 11 23 56 40 100
32 79 79 192 105 250 7 17 24 55 38 85 97 218 91 205 276 580 203 412 451 873
669 1245 260 443 263 447 289 440 24 -6 180 -28 278 -40 119 -13 328 -28 400
-27 47 1 85 38 78 77 -6 27 -19 34 -153 75 -96 30 -428 152 -457 169 -16 9
286 476 583 900 50 71 245 333 254 341 3 3 21 25 40 50 19 25 37 47 41 50 4 3
23 25 44 50 61 74 184 199 238 242 89 70 122 82 218 82 77 0 92 -3 160 -35 40
-20 107 -61 148 -93 60 -45 82 -56 112 -56 71 0 92 61 42 122 -82 99 -249 264
-348 343 -142 114 -246 145 -352 106z"/>
<path d="M16937 6434 c-1 -1 -33 -5 -71 -9 -38 -3 -73 -8 -78 -11 -4 -3 -21
-8 -36 -10 -47 -9 -147 -62 -193 -103 -71 -62 -108 -141 -134 -286 -8 -46 -15
-239 -20 -570 -2 -165 -6 -309 -8 -320 -3 -11 -8 -49 -12 -85 -9 -86 -40 -181
-77 -242 -62 -100 -182 -165 -286 -155 -61 6 -340 73 -611 147 -98 26 -163 25
-192 -6 -25 -27 -28 -64 -6 -97 18 -28 394 -245 511 -296 71 -30 92 -35 166
-35 102 -1 134 12 215 89 53 49 58 52 108 52 160 -1 276 40 368 132 93 93 142
218 164 416 3 28 8 66 10 85 3 19 7 71 10 115 6 119 14 256 21 380 3 61 7 126
9 145 2 19 6 64 9 100 10 107 31 199 56 250 52 103 170 163 348 177 89 6 119
21 126 60 5 26 -20 50 -59 57 -77 12 -330 27 -338 20z"/>
<path d="M17618 6375 c-2 -1 -40 -5 -85 -8 -116 -8 -120 -12 -168 -142 -30
-81 -70 -155 -153 -281 -33 -50 -66 -107 -73 -128 -12 -33 -11 -38 7 -57 18
-18 36 -21 135 -23 120 -3 134 0 181 42 67 60 256 376 279 465 13 53 1 100
-29 113 -20 8 -90 22 -94 19z"/>
<path d="M30605 5071 c-50 -12 -69 -27 -132 -98 -140 -160 -384 -506 -495
-700 -41 -74 -57 -102 -102 -176 -25 -43 -46 -80 -46 -82 0 -2 -17 -34 -38
-72 -22 -37 -69 -126 -107 -198 -77 -148 -87 -163 -75 -109 9 39 18 102 25
179 2 22 7 67 11 100 8 77 8 455 0 560 -21 269 -36 309 -142 357 -227 102
-283 116 -344 86 -86 -43 -311 -336 -482 -628 -117 -198 -281 -524 -373 -737
-10 -24 -20 -41 -21 -40 -2 2 6 51 16 111 11 59 19 110 19 114 -1 4 -1 9 1 12
5 15 38 289 45 375 3 44 8 94 10 110 2 17 7 101 10 187 10 223 2 240 -133 273
-43 10 -93 31 -120 50 -80 54 -90 58 -122 45 -32 -13 -33 -15 -140 -190 -42
-69 -113 -176 -158 -239 -45 -64 -84 -129 -88 -148 -8 -42 17 -83 50 -83 26 0
48 21 166 160 39 47 95 112 123 144 l52 60 6 -40 c7 -46 3 -508 -5 -544 -3
-14 -7 -59 -10 -100 -5 -79 -25 -231 -56 -440 -6 -41 -13 -92 -16 -113 -3 -21
-7 -44 -8 -50 -2 -7 -6 -30 -10 -52 -4 -22 -14 -74 -21 -115 -8 -41 -16 -88
-19 -105 -24 -142 -84 -342 -123 -413 -32 -58 -34 -64 -20 -85 16 -25 224
-134 272 -143 60 -11 84 30 135 231 159 628 540 1467 863 1900 98 132 194 231
231 241 35 9 62 -17 70 -66 18 -124 25 -531 12 -725 -7 -99 -42 -418 -51 -466
-3 -13 -14 -73 -25 -134 -27 -146 -79 -369 -125 -530 -52 -182 -51 -172 -12
-209 33 -31 163 -89 223 -100 16 -3 39 -8 51 -10 24 -5 52 16 54 40 2 16 1 12
18 84 57 238 119 432 213 665 219 544 609 1221 857 1488 112 120 193 123 212
6 9 -56 12 -287 4 -374 -10 -125 -16 -192 -20 -220 -10 -73 -36 -253 -40 -276
-2 -13 -11 -67 -20 -119 -13 -74 -65 -332 -90 -440 -29 -130 -145 -556 -169
-620 -24 -65 -9 -109 46 -134 88 -39 241 -66 275 -48 12 7 36 48 57 99 21 48
41 97 46 108 5 11 34 81 65 155 94 225 225 517 297 663 71 145 84 198 51 215
-19 9 -46 4 -74 -13 -14 -8 -99 -139 -99 -151 0 -8 -120 -189 -120 -181 0 4
13 58 29 120 25 97 42 175 66 302 45 240 59 401 59 705 l1 285 -26 56 c-37 77
-96 121 -186 135 -19 3 -58 21 -87 39 -39 25 -155 71 -160 64 -1 -1 -14 -4
-31 -8z"/>
<path d="M22855 4970 c-30 -12 -73 -54 -171 -165 -109 -123 -212 -231 -326
-342 -47 -47 -89 -96 -92 -109 -10 -40 9 -64 52 -64 32 1 47 10 103 63 36 34
79 73 95 87 16 14 56 47 87 74 32 26 60 46 63 43 3 -2 -8 -26 -24 -53 -48 -82
-233 -465 -301 -624 -18 -41 -41 -93 -51 -115 -10 -22 -35 -80 -55 -130 -21
-49 -45 -108 -55 -130 -20 -45 -150 -374 -187 -475 -75 -200 -65 -224 140
-353 77 -48 92 -54 115 -46 44 16 97 100 221 354 105 213 241 466 306 565 12
19 53 82 91 140 161 248 389 535 607 763 138 145 177 179 215 191 20 7 22 4
22 -28 0 -86 -58 -269 -136 -431 -24 -48 -28 -108 -11 -141 16 -30 117 -136
153 -161 40 -26 63 -24 97 11 33 33 88 157 142 321 59 181 110 443 102 528 -6
69 -35 95 -142 128 -22 6 -60 29 -84 50 -57 51 -101 59 -156 30 -66 -35 -309
-292 -540 -572 -177 -215 -430 -568 -613 -854 -17 -27 -32 -45 -32 -38 0 6 5
15 10 18 6 3 10 13 10 20 0 14 7 31 123 285 181 399 415 837 496 929 49 56 38
92 -47 149 -119 81 -179 103 -227 82z"/>
<path d="M25578 4810 c-80 -23 -209 -154 -326 -332 -68 -103 -135 -214 -137
-228 0 -3 -7 -16 -15 -30 -135 -238 -358 -839 -395 -1064 -3 -17 -10 -58 -16
-91 -34 -188 5 -364 105 -484 92 -110 259 -206 392 -226 38 -6 72 -13 153 -31
36 -9 77 -18 91 -21 67 -15 186 -6 257 19 265 93 557 488 760 1026 19 52 36
99 38 105 1 7 5 19 8 27 26 65 104 355 128 474 19 91 36 260 33 320 -8 147
-114 331 -247 425 -64 46 -173 26 -421 -76 l-59 -24 -46 43 c-25 24 -48 46
-51 49 -3 3 -30 24 -60 46 -93 69 -141 87 -192 73z m732 -328 c31 -25 32 -114
4 -305 -57 -389 -144 -668 -315 -1012 -98 -198 -144 -275 -224 -380 -74 -95
-80 -102 -159 -169 -159 -134 -348 -173 -455 -94 -67 49 -102 134 -116 278 -8
84 -8 74 -1 155 11 129 23 191 81 425 24 96 127 368 193 513 23 48 42 91 42
95 1 4 5 12 10 17 4 6 25 42 46 80 37 68 105 171 152 230 l23 29 22 -28 22
-28 185 68 c102 36 221 80 265 96 143 53 189 59 225 30z"/>
</g>
</svg>
